<svg viewBox="0 0 24 18" xmlns="http://www.w3.org/2000/svg"><path d="M17.822 5.003c.127.506.222 1.171.285 1.994l.032.444.19 1.393c.084.528.31.987.68 1.377.37.39.808.586 1.314.586.591 0 1.05-.169 1.378-.507.327-.337.49-.791.49-1.361 0-.17-.063-.433-.19-.792l-.032-.127c.254-.4.58-.601.982-.601.295 0 .543.084.744.253.2.17.301.401.301.697 0 .38-.106.707-.317.981-.21.275-.517.581-.918.918l-.063.064a17.497 17.497 0 01-4.227 2.691c-.792.36-1.589.644-2.39.855a9.185 9.185 0 01-2.344.317 8.377 8.377 0 01-2.01-.254 6.781 6.781 0 01-1.916-.791 4.465 4.465 0 01-1.425-1.346c-.359-.538-.538-1.166-.538-1.884 0-.633.185-1.15.554-1.551.37-.401.87-.76 1.504-1.077a2.733 2.733 0 00-1.282-1.25 4.55 4.55 0 00-1.884-.46c0 .55-.127 1.077-.38 1.584a5.106 5.106 0 01-1.013 1.377 7.99 7.99 0 01-1.41 1.092c-.517.317-1.04.581-1.566.792.168.908.707 1.361 1.614 1.361.528 0 .982-.179 1.362-.538v.253c0 .106.01.264.032.475.02.233.031.401.031.507 0 .464-.195.844-.586 1.14-.39.295-.828.443-1.314.443-.78 0-1.43-.274-1.947-.823-.517-.549-.797-1.214-.839-1.995-.19-.02-.433-.095-.728-.222.147-.57.39-1.023.728-1.361.042-.59.211-1.156.507-1.694a5.39 5.39 0 011.155-1.44 7.19 7.19 0 011.568-1.061c.57-.285 1.15-.47 1.741-.554A1.331 1.331 0 005 4.227c-.317-.137-.76-.258-1.33-.364-.781-.148-1.362-.343-1.742-.586-.38-.242-.57-.702-.57-1.377 0-.612.211-1.082.634-1.41C2.413.165 2.93 0 3.542 0h.317a1.2 1.2 0 00-.475.982c0 .359.126.686.38.981.253.296.58.56.981.792l.032.031c.57.36.997.681 1.282.966.285.285.512.67.681 1.156l.38-.032c.549 0 1.124.142 1.725.427a6.408 6.408 0 011.568 1.03l.063-.064c-.359-.717-.538-1.372-.538-1.963 0-.823.321-1.504.966-2.042a3.335 3.335 0 012.2-.808c.739 0 1.472.185 2.2.555.729.37 1.315.85 1.758 1.44.38.528.633 1.045.76 1.552zM3.448 8.755c.421-.2.828-.444 1.219-.729.39-.285.707-.601.95-.95.242-.348.364-.712.364-1.092a1.79 1.79 0 00-.064-.412c-.443 0-.881.1-1.314.301-.433.201-.828.47-1.187.808-.36.338-.639.728-.84 1.171-.2.443-.3.898-.3 1.362a8.025 8.025 0 001.172-.46z" fill="#000" fill-rule="nonzero"/></svg>
